# xmcd
#
# Track frame offsets:
#	183
#	14333
#	25920
#	39283
#	49008
#	64858
#	76358
#	86783
#	97270
#	108408
#	122095
#	131533
#	146658
#	159145
#	169633
#	180570
#	195145
#	207608
#	221258
#	248483
#	261183
#	271395
#	283895
#	294308
#	316433
#
# Disc length: 4360 seconds
#
# Revision: 0
# Processed by: cddbd v1.5.2PL0 Copyright (c) Steve Scherf et al.
# Submitted via: audiograbber 1.83.01
#
DISCID=64110619
DTITLE=Various Artist - The World Of Soul - 25 Soul Survivors - Knock On Wood. Disc 2.
DYEAR=1992
DGENRE=Soul
TTITLE0=Aaron Neville - Tell It Like It Is
TTITLE1=Sam and Dave - Soul Man
TTITLE2=Eddie Floyd - Knock On Wood
TTITLE3=James Brown - Give It Up Or Turn It Loose
TTITLE4=Screamin' Jay Hawkins - I Put A Spell On You
TTITLE5=The Drifters - This Magic Moment
TTITLE6=Gene Chandler - Duke Of Earl
TTITLE7=Etta James - Tell Mama
TTITLE8=Brook Benton - It's Just A Matter Of Time
TTITLE9=Ike and Tina Turner - It's Gonna Work Out Fine
TTITLE10=The Isley Brothers - I Say Love
TTITLE11=James Brown - Cold Sweat - I Can't Stand It
TTITLE12=Jerry Butler - For Your Precious Love
TTITLE13=Joe Tex - Charlie Brown Got Expelled
TTITLE14=Maxine Brown - All In My Mind
TTITLE15=Percy Sledge - Warm and Tender Love
TTITLE16=The Kingsmen - Louie Louie
TTITLE17=Ramsey Lewis - Since You've Been Gone
TTITLE18=The Dells - Stay In My Corner
TTITLE19=Fontella Bass and Bobby McClure - Don't Mess Up A Good Thing
TTITLE20=The Drifters - Up On The Roof
TTITLE21=Gene Chandler - Rainbow
TTITLE22=Brook Benton - Revenge
TTITLE23=Solomon Burke - Sidewalks, Fences And Walls
TTITLE24=James Brown - Get Up Off That Thang
EXTD=[Second time I try.]
EXTT0=
EXTT1=
EXTT2=
EXTT3=
EXTT4=
EXTT5=
EXTT6=
EXTT7=
EXTT8=
EXTT9=
EXTT10=
EXTT11=
EXTT12=
EXTT13=
EXTT14=
EXTT15=
EXTT16=
EXTT17=
EXTT18=
EXTT19=
EXTT20=
EXTT21=
EXTT22=
EXTT23=
EXTT24=
PLAYORDER=
